# xmcd
#
# Track frame offsets: 
#        150
#        12911
#        22984
#        36093
#        49436
#        65243
#        85351
#        97978
#        114186
#        127543
#        139825
#        155914
#        166741
#
# Disc length: 2430 seconds
#
# Revision: 2
# Processed by: cddbd v1.5PL3 Copyright (c) Steve Scherf et al.
# Submitted via: ExactAudioCopy v0.95a5
#
DISCID=a3097c0d
DTITLE=Mel Torme - Back In Town
DYEAR=1959
DGENRE=Jazz
TTITLE0=Makin' Whoopee
TTITLE1=Baubles, Bangles and Beads
TTITLE2=What Is This Thing Called Love
TTITLE3=I've Never Been In Love Before
TTITLE4=Truckin'
TTITLE5=A Bunch of the Blues, Keester Parade, TNT, Tiny's Blues
TTITLE6=It Happened in Monterey
TTITLE7=I Hadn't Anyone 'Til You
TTITLE8=A Smooth One
TTITLE9=Don't Dream of Anybody But Me (Li'l Darlin')
TTITLE10=Some Like It Hot
TTITLE11=Hit The Road to Dreamland
TTITLE12=I Hadn't Anyone 'Til You (alternate take)
EXTD=YEAR: 1959
EXTT0=
EXTT1=
EXTT2=
EXTT3=
EXTT4=
EXTT5=
EXTT6=
EXTT7=
EXTT8=
EXTT9=
EXTT10=
EXTT11=
EXTT12=
PLAYORDER=
